Coordinates
version=1
nRows=7
nColumns=40
inDegrees=yes

Units are S.I. units (second, meters, Newtons, ...)
If the header above contains a line with 'inDegrees', this indicates whether rotational values are in degrees (yes) or radians (no).

endheader
time	pelvis_tilt	pelvis_list	pelvis_rotation	pelvis_tx	pelvis_ty	pelvis_tz	hip_flexion_r	hip_adduction_r	hip_rotation_r	knee_angle_r	knee_angle_r_beta	ankle_angle_r	subtalar_angle_r	mtp_angle_r	hip_flexion_l	hip_adduction_l	hip_rotation_l	knee_angle_l	knee_angle_l_beta	ankle_angle_l	subtalar_angle_l	mtp_angle_l	lumbar_extension	lumbar_bending	lumbar_rotation	arm_flex_r	arm_add_r	arm_rot_r	elbow_flex_r	pro_sup_r	wrist_flex_r	wrist_dev_r	arm_flex_l	arm_add_l	arm_rot_l	elbow_flex_l	pro_sup_l	wrist_flex_l	wrist_dev_l
      0.86500000	      0.89915524	      6.95768435	     -1.35056442	      0.57336285	      0.93703124	      0.17976292	     20.76061517	    -18.64341752	    -12.53789549	     67.99427067	      1.18672390	     -5.09495779	    -18.05928336	      0.00000000	      1.83535285	      7.54775667	    -21.43722344	     10.16533092	      0.17741849	      2.95445541	      2.69548071	      0.00000000	     -1.15414971	     -8.35691081	      1.74768352	     31.66798683	    -13.15676710	     31.66798683	     77.07074790	     44.92200882	      0.00000000	      0.00000000	     31.66798683	    -13.15676710	     31.66798683	     77.07074790	     44.92200882	      0.00000000	      0.00000000
      0.87000000	      1.27400381	      5.90985042	     -0.95566712	      0.57974250	      0.93895696	      0.17871346	     20.43005042	    -17.27138432	    -13.24692156	     66.64014087	      1.16308987	     -4.42398332	    -17.61426171	      0.00000000	      0.70488596	      6.48806119	    -21.15126161	      9.75360801	      0.17023257	      3.39822011	      3.88268619	      0.00000000	     -1.77508771	     -7.13660476	      1.00556908	     31.76411186	    -13.17847629	     31.76411186	     77.02321985	     44.92687029	      0.00000000	      0.00000000	     31.76411186	    -13.17847629	     31.76411186	     77.02321985	     44.92687029	      0.00000000	      0.00000000
      0.87500000	      1.18367907	      5.95438954	     -0.77297539	      0.58577818	      0.93904897	      0.17817359	     21.27323301	    -17.21080593	    -13.38483782	     66.02386970	      1.15233391	     -4.22624630	    -17.57689327	      0.00000000	      0.32836767	      6.56957527	    -21.25598524	      9.67616105	      0.16888087	      3.46847076	      3.95753569	      0.00000000	     -1.80751479	     -7.13597642	      1.00371201	     31.76574806	    -13.17884487	     31.76574806	     77.02241774	     44.92695068	      0.00000000	      0.00000000	     31.76574806	    -13.17884487	     31.76574806	     77.02241774	     44.92695068	      0.00000000	      0.00000000
      0.88000000	      1.23407065	      5.57401420	     -0.73181110	      0.59208691	      0.93964456	      0.17815442	     21.68059521	    -16.41208536	    -13.34692840	     64.94451714	      1.13349566	     -3.23961171	    -16.93215454	      0.00000000	     -0.51003646	      6.24651026	    -21.10646757	      8.99685716	      0.15702478	      3.70250433	      4.87367652	      0.00000000	     -1.77171737	     -6.75471264	      0.83986425	     31.78163290	    -13.18242330	     31.78163290	     77.01463347	     44.92772873	      0.00000000	      0.00000000	     31.78163290	    -13.18242330	     31.78163290	     77.01463347	     44.92772873	      0.00000000	      0.00000000
      0.88500000	      1.54234669	      4.73665723	     -0.14610335	      0.59840826	      0.94120147	      0.17661569	     21.32815233	    -15.41519501	    -14.20363720	     63.32493503	      1.10522861	     -3.04007688	    -16.67367589	      0.00000000	     -1.40224822	      5.37710299	    -20.77251465	      8.83770729	      0.15424709	      3.94409640	      5.46965851	      0.00000000	     -2.31910096	     -5.59724727	      0.28740231	     31.84774264	    -13.19728693	     31.84774264	     76.98246196	     44.93088639	      0.00000000	      0.00000000	     31.84774264	    -13.19728693	     31.84774264	     76.98246196	     44.93088639	      0.00000000	      0.00000000
      0.89000000	      1.41510896	      4.83073189	      0.02348413	      0.60448658	      0.94103460	      0.17624613	     22.08998445	    -15.35691621	    -14.26303781	     62.42627021	      1.08954395	     -2.82520321	    -16.56432659	      0.00000000	     -1.74837040	      5.49916577	    -20.81042226	      8.73299748	      0.15241956	      4.07101391	      5.60842565	      0.00000000	     -2.19462632	     -5.66662418	      0.31585664	     31.85088611	    -13.19799239	     31.85088611	     76.98094171	     44.93103334	      0.00000000	      0.00000000	     31.85088611	    -13.19799239	     31.85088611	     76.98094171	     44.93103334	      0.00000000	      0.00000000
      0.89500000	      1.55906032	      4.46494421	      0.15191183	      0.61066666	      0.94170810	      0.17609364	     22.26499256	    -14.62184212	    -14.32054047	     61.06480504	      1.06578191	     -2.09506554	    -15.86685142	      0.00000000	     -2.59436618	      5.14976591	    -20.65503551	      8.21200495	      0.14332652	      4.23146914	      6.35346347	      0.00000000	     -2.43262650	     -5.28868127	      0.12498615	     31.87318305	    -13.20299436	     31.87318305	     76.97017596	     44.93206878	      0.00000000	      0.00000000	     31.87318305	    -13.20299436	     31.87318305	     76.97017596	     44.93206878	      0.00000000	      0.00000000
